<svg width="1198" height="160" viewBox="0 0 1198 160" fill="none" xmlns="http://www.w3.org/2000/svg">
<path fill-rule="evenodd" clip-rule="evenodd" d="M725.777 51.9791C736.382 51.9794 744.449 55.4747 749.979 62.4666V53.0688H770.102V114.097C770.102 127.537 766.613 137.527 759.634 144.066C752.655 150.605 742.456 153.873 729.041 153.873C721.97 153.873 715.261 153.01 708.916 151.285C702.571 149.56 697.312 147.062 693.143 143.792L701.573 128.537C704.655 131.079 708.552 133.077 713.266 134.53C717.979 136.074 722.693 136.845 727.406 136.845C734.749 136.845 740.143 135.166 743.588 131.806C747.122 128.536 748.892 123.541 748.892 116.821V113.688C743.362 119.772 735.657 122.814 725.777 122.814C719.069 122.814 712.903 121.362 707.284 118.456C701.755 115.459 697.358 111.282 694.095 105.924C690.831 100.566 689.2 94.3896 689.2 87.3968C689.2 80.404 690.831 74.2275 694.095 68.8692C697.358 63.5115 701.755 59.3793 707.284 56.4733C712.903 53.4765 719.069 51.9791 725.777 51.9791ZM729.992 69.4141C724.373 69.4141 719.749 71.0959 716.123 74.456C712.497 77.7254 710.683 82.0387 710.683 87.3968C710.683 92.7548 712.497 97.113 716.123 100.473C719.749 103.742 724.373 105.379 729.992 105.379C735.613 105.379 740.189 103.742 743.723 100.473C747.349 97.113 749.163 92.7547 749.163 87.3968C749.163 82.0388 747.349 77.7254 743.723 74.456C740.189 71.0961 735.613 69.4143 729.992 69.4141Z" fill="white"/>
<path fill-rule="evenodd" clip-rule="evenodd" d="M449.776 51.9791C456.575 51.9792 462.738 53.5687 468.267 56.7472C473.887 59.8347 478.283 64.2381 481.456 69.9589C484.629 75.5893 486.215 82.1742 486.216 89.7116C486.216 97.249 484.629 103.879 481.456 109.6C478.283 115.23 473.888 119.636 468.267 122.814C462.738 125.902 456.575 127.447 449.776 127.447C440.439 127.447 433.096 124.494 427.748 118.591V152.784H406.536V53.0688H426.797V61.5153C432.055 55.1581 439.714 51.9791 449.776 51.9791ZM446.103 69.4141C440.664 69.4141 436.179 71.2775 432.643 75.0009C429.198 78.6333 427.477 83.5367 427.477 89.7116C427.477 95.8871 429.198 100.837 432.643 104.561C436.179 108.193 440.664 110.009 446.103 110.009C451.542 110.009 455.984 108.193 459.428 104.561C462.964 100.837 464.732 95.8871 464.732 89.7116C464.732 83.5366 462.963 78.6333 459.428 75.0009C455.984 71.2776 451.542 69.4141 446.103 69.4141Z" fill="white"/>
<path d="M1087.42 54.7061H1105.64V71.0514H1087.42V100.885C1087.42 103.973 1088.19 106.378 1089.73 108.104C1091.36 109.738 1093.62 110.557 1096.53 110.557C1099.88 110.557 1102.73 109.649 1105.09 107.833L1110.8 122.817C1108.72 124.361 1106.13 125.543 1103.05 126.36C1100.06 127.087 1096.89 127.45 1093.53 127.45C1084.83 127.45 1078.08 125.223 1073.27 120.773C1068.56 116.323 1066.2 109.784 1066.2 101.156V71.0514H1054.92V54.7061H1066.2V36.859H1087.42V54.7061Z" fill="white"/>
<path fill-rule="evenodd" clip-rule="evenodd" d="M311.247 51.9791C322.578 51.9791 331.281 54.7028 337.355 60.1517C343.427 65.51 346.465 73.6393 346.465 84.537V126.357H326.61V117.23C322.622 124.041 315.19 127.447 304.314 127.447C298.693 127.447 293.796 126.492 289.626 124.584C285.548 122.677 282.42 120.045 280.245 116.686C278.069 113.326 276.981 109.51 276.981 105.241C276.982 98.4304 279.522 93.0717 284.598 89.1668C289.764 85.2626 297.696 83.3092 308.39 83.309H325.252C325.252 78.6778 323.846 75.1351 321.038 72.6832C318.227 70.1407 314.011 68.8692 308.39 68.8692C304.493 68.8694 300.642 69.5066 296.836 70.7776C293.12 71.9581 289.945 73.5924 287.317 75.6812L279.703 60.8321C283.691 58.0171 288.45 55.8378 293.979 54.294C299.599 52.7503 305.355 51.9791 311.247 51.9791ZM310.702 95.7078C302.001 95.7079 297.649 98.5686 297.649 104.29C297.649 107.014 298.692 109.193 300.777 110.828C302.952 112.372 305.899 113.143 309.616 113.143C313.241 113.143 316.46 112.324 319.27 110.69C322.08 108.964 324.073 106.468 325.252 103.2V95.7078H310.702Z" fill="white"/>
<path fill-rule="evenodd" clip-rule="evenodd" d="M623.948 51.9791C635.279 51.9791 643.982 54.7028 650.055 60.1517C656.128 65.51 659.165 73.6393 659.165 84.537V126.357H639.314V117.23C635.325 124.041 627.892 127.447 617.015 127.447C611.395 127.447 606.499 126.492 602.329 124.584C598.25 122.677 595.121 120.046 592.946 116.686C590.77 113.326 589.682 109.51 589.682 105.241C589.682 98.4304 592.223 93.0717 597.299 89.1668C602.467 85.2625 610.397 83.3092 621.091 83.309H637.953C637.953 78.6778 636.547 75.1351 633.738 72.6832C630.928 70.1408 626.712 68.8692 621.091 68.8692C617.195 68.8694 613.344 69.5066 609.537 70.7776C605.82 71.9582 602.646 73.5924 600.017 75.6812L592.404 60.8321C596.392 58.0172 601.15 55.8378 606.68 54.294C612.299 52.7502 618.057 51.9791 623.948 51.9791ZM623.403 95.7078C614.702 95.7079 610.35 98.5686 610.35 104.29C610.35 107.014 611.394 109.193 613.478 110.828C615.653 112.372 618.6 113.143 622.316 113.143C625.942 113.143 629.162 112.324 631.971 110.69C634.78 108.964 636.775 106.468 637.953 103.2V95.7078H623.403Z" fill="white"/>
<path fill-rule="evenodd" clip-rule="evenodd" d="M881.97 51.9791C889.674 51.9791 896.564 53.6135 902.637 56.8827C908.711 60.0613 913.471 64.5113 916.916 70.2328C920.36 75.9537 922.082 82.447 922.082 89.7116C922.082 96.9769 920.36 103.472 916.916 109.193C913.471 114.915 908.711 119.41 902.637 122.679C896.564 125.857 889.674 127.447 881.97 127.447C874.266 127.447 867.331 125.857 861.167 122.679C855.093 119.41 850.333 114.915 846.888 109.193C843.444 103.472 841.722 96.9769 841.722 89.7116C841.722 82.447 843.445 75.9537 846.888 70.2328C850.333 64.5113 855.093 60.0613 861.167 56.8827C867.331 53.6135 874.265 51.9792 881.97 51.9791ZM881.97 69.4141C876.531 69.4142 872.045 71.2777 868.51 75.0009C864.976 78.6333 863.205 83.5366 863.205 89.7116C863.205 95.8871 864.975 100.837 868.51 104.561C872.045 108.193 876.531 110.009 881.97 110.009C887.409 110.009 891.852 108.193 895.297 104.561C898.832 100.837 900.599 95.8867 900.599 89.7116C900.599 83.5371 898.832 78.6332 895.297 75.0009C891.852 71.2775 887.409 69.4141 881.97 69.4141Z" fill="white"/>
<path d="M386.859 126.36H365.647V25.2817H386.859V126.36Z" fill="white"/>
<path d="M521.653 60.6994C524.463 57.8846 527.862 55.7498 531.85 54.2968C535.838 52.7531 540.19 51.982 544.903 51.9819C553.968 51.9819 561.265 54.7057 566.796 60.1546C572.415 65.6033 575.225 73.6859 575.226 84.4015V126.36H554.013V87.6734C554.013 81.8612 552.746 77.5451 550.208 74.7299C547.67 71.8238 543.996 70.3711 539.192 70.3711C533.844 70.3712 529.584 72.053 526.413 75.413C523.24 78.6823 521.653 83.5854 521.653 90.1238V126.36H500.441V25.2817H521.653V60.6994Z" fill="white"/>
<path d="M961.909 102.655L979.855 53.0716H997.804L1015.21 102.655L1033.02 53.0716H1051.79L1025.27 126.36H1004.88L988.423 80.8615L971.426 126.36H951.03L924.651 53.0716H944.641L961.909 102.655Z" fill="white"/>
<path d="M1143.94 60.6994C1146.75 57.8846 1150.15 55.7498 1154.13 54.2968C1158.12 52.7531 1162.47 51.982 1167.19 51.9819C1176.25 51.9819 1183.55 54.7056 1189.08 60.1546C1194.7 65.6033 1197.51 73.6859 1197.51 84.4015V126.36H1176.3V87.6734C1176.3 81.8612 1175.03 77.5451 1172.49 74.7299C1169.95 71.8238 1166.28 70.3711 1161.48 70.3711C1156.13 70.3712 1151.87 72.053 1148.7 75.413C1145.52 78.6823 1143.94 83.5854 1143.94 90.1238V126.36H1122.73V25.2817H1143.94V60.6994Z" fill="white"/>
<path d="M835.215 71.5935C832.86 71.4119 831.274 71.3225 830.458 71.3225C824.384 71.3225 819.623 73.0489 816.179 76.4999C812.735 79.8601 811.013 84.9453 811.013 91.7555V126.357H789.801V53.0688H810.062V62.7405C812.6 59.1989 815.998 56.5196 820.258 54.7033C824.609 52.8871 829.596 51.9792 835.215 51.9791V71.5935Z" fill="white"/>
<path d="M89.1182 1.96389C98.1838 -0.26127 107.608 -0.599868 116.809 0.970183C123.604 2.36566 130.024 5.19202 135.647 9.26141C141.271 13.331 145.969 18.5507 149.429 24.5763C152.199 28.9563 154.155 34.05 156.696 39.1431L177.273 6.64729H218.85L170.159 83.5804C175.469 103.011 180.604 138.433 204.687 142.483C211.174 143.573 216.813 143.541 225.772 142.229C220.86 150.563 211.926 156.012 202.725 158.492C195.411 160.465 187.71 160.502 180.375 158.602C174.802 156.956 169.612 154.206 165.117 150.514C160.623 146.823 156.912 141.678 154.206 136.523C150.341 128.838 147.299 120.764 145.136 112.435C141.41 99.8883 137.691 87.333 133.982 74.7697C130.476 63.0302 127.861 50.5008 123.339 39.1177C121.366 33.393 118.156 28.174 113.938 23.8367C112.085 21.9654 109.879 20.4804 107.451 19.4666C105.022 18.4528 102.417 17.9313 99.7864 17.9309C91.6041 18.014 83.7029 20.937 77.4309 26.2052C71.9103 30.6622 66.9698 35.797 62.7229 41.4862C56.2349 49.9887 50.6479 59.146 46.0558 68.8103C39.3418 81.7764 35.764 96.1443 35.6134 110.752C35.4384 116.254 36.4889 121.729 38.6877 126.773C39.8652 130.141 41.9398 133.125 44.6838 135.4C47.428 137.675 50.7404 139.155 54.2623 139.682C61.4521 140.779 68.803 139.577 75.2713 136.244C83.5566 131.96 91.1733 126.487 97.8809 119.997C108.651 109.555 118.277 97.9871 126.591 85.4916L138.784 125.268C135.38 128.375 132.434 130.769 128.929 133.799C112.634 147.979 92.4757 156.946 71.0537 159.545C38.6373 163.009 3.93618 146.66 0.303032 111.339C-0.967888 96.9918 1.77504 82.5725 8.22726 69.7024C16.7505 52.0265 29.0811 36.4668 44.3281 24.1444C57.1798 13.1238 72.5774 5.49928 89.1182 1.96389Z" fill="#BFFF36"/>
</svg>
