<svg width="512" height="512" viewBox="0 0 512 512" fill="none" xmlns="http://www.w3.org/2000/svg">
<rect width="512" height="512" rx="256" fill="#0A0A0A"/>
<path d="M335.249 260.286C342.598 287.172 349.702 336.186 383.027 341.789C392.003 343.298 399.806 343.252 412.204 341.436C405.406 352.969 393.043 360.509 380.311 363.94C370.19 366.671 359.534 366.723 349.384 364.094C341.672 361.816 334.494 358.01 328.274 352.902C322.055 347.794 316.918 340.677 313.174 333.545C307.825 322.91 303.617 311.736 300.624 300.21C295.468 282.85 290.324 265.478 285.192 248.094C280.341 231.849 276.72 214.512 270.463 198.761C267.733 190.84 263.292 183.62 257.456 177.619C254.892 175.029 251.841 172.973 248.481 171.57C245.12 170.167 241.516 169.444 237.875 169.444C226.553 169.558 215.62 173.606 206.941 180.896C199.302 187.063 192.464 194.166 186.587 202.038C177.61 213.804 169.881 226.475 163.527 239.848C154.236 257.79 149.287 277.671 149.079 297.884C148.836 305.497 150.29 313.069 153.332 320.049C154.962 324.711 157.829 328.839 161.627 331.987C165.424 335.135 170.007 337.184 174.881 337.914C184.83 339.432 195.002 337.769 203.953 333.157C215.417 327.229 225.958 319.656 235.239 310.676C250.141 296.226 263.458 280.219 274.962 262.929L291.836 317.97C287.125 322.269 283.048 325.581 278.197 329.774C255.649 349.396 227.759 361.802 198.118 365.399C153.262 370.193 105.243 347.569 100.216 298.695C98.4574 278.842 102.256 258.89 111.184 241.082C122.978 216.623 140.038 195.092 161.136 178.042C178.919 162.792 200.224 152.242 223.111 147.35C235.656 144.271 248.697 143.803 261.428 145.976C270.83 147.907 279.716 151.817 287.497 157.448C295.279 163.079 301.777 170.303 306.565 178.641C310.397 184.701 313.103 191.749 316.619 198.796L345.093 153.833H402.626L335.249 260.286Z" fill="url(#paint0_radial_5570_2003)"/>
<defs>
<radialGradient id="paint0_radial_5570_2003" cx="0" cy="0" r="1" gradientUnits="userSpaceOnUse" gradientTransform="translate(412.204 255.33) rotate(-180) scale(312.407 387.877)">
<stop offset="0.25" stop-color="#BFFF36"/>
<stop offset="1" stop-color="white"/>
</radialGradient>
</defs>
</svg>
