<svg width="471" height="83" viewBox="0 0 471 83" fill="none" xmlns="http://www.w3.org/2000/svg">
<g filter="url(#filter0_d_1_165824)">
<path d="M26.8227 56.4583C18.1385 56.4583 11.497 54.4798 6.89817 50.5227C2.2994 46.5442 0 40.4374 0 32.2024C0 26.9191 1.05879 22.4593 3.17638 18.8231C5.29394 15.1654 8.38476 12.4062 12.4488 10.5453C16.5129 8.68435 21.4539 7.7539 27.2719 7.7539C31.3146 7.7539 35.2289 8.20308 39.0149 9.10145V16.6092C35.4642 15.7537 31.7637 15.3259 27.9136 15.3259C21.7747 15.3259 17.1973 16.6841 14.1814 19.4006C11.1868 22.1171 9.68953 26.3416 9.68953 32.074C9.68953 37.9348 11.1654 42.2021 14.1172 44.8758C17.069 47.5495 21.486 48.8864 27.3681 48.8864C31.3253 48.8864 35.2075 48.3516 39.0149 47.2821V54.7899C35.2503 55.9022 31.1862 56.4583 26.8227 56.4583ZM59.2818 56.4583C54.0627 56.4583 49.1858 55.7418 44.6512 54.3086V46.9292C46.8329 47.6564 49.2607 48.2233 51.9344 48.6297C54.6081 49.0147 57.0893 49.2072 59.378 49.2072C63.1854 49.2072 65.9447 48.6511 67.6559 47.5388C69.3669 46.4051 70.2225 44.7474 70.2225 42.5657C70.2225 41.3465 69.9444 40.3412 69.3883 39.5497C68.8535 38.7369 67.9659 38.0632 66.7254 37.5284C65.5062 36.9937 63.8057 36.5124 61.624 36.0846L58.0626 35.4108C53.036 34.4269 49.3783 32.8441 47.0896 30.6623C44.8009 28.4592 43.6566 25.5288 43.6566 21.8711C43.6566 17.3793 45.3998 13.9034 48.8864 11.4436C52.3729 8.98381 57.5171 7.7539 64.3191 7.7539C68.9605 7.7539 73.1743 8.28864 76.9603 9.35813V16.7376C75.1635 16.1815 73.1743 15.7537 70.9925 15.4542C68.8322 15.1547 66.6612 15.005 64.4795 15.005C60.394 15.005 57.4209 15.5718 55.56 16.7055C53.7204 17.8178 52.8007 19.4327 52.8007 21.5503C52.8007 22.7267 53.036 23.7106 53.5065 24.5021C53.9771 25.2935 54.7578 25.9566 55.8487 26.4913C56.961 27.026 58.4904 27.4859 60.4368 27.8709L63.9982 28.5447C67.6772 29.272 70.6396 30.2452 72.8855 31.4644C75.1528 32.6622 76.7998 34.1381 77.8265 35.8921C78.8532 37.6461 79.3666 39.7209 79.3666 42.1165C79.3666 45.1111 78.5645 47.6885 76.9603 49.8489C75.3774 51.9879 73.078 53.6242 70.0621 54.7578C67.0463 55.8915 63.4528 56.4583 59.2818 56.4583ZM150.872 8.3635H159.76L144.937 55.8487H133.13L120.938 17.2509L108.553 55.8487H96.7778L81.9227 8.3635H91.3235L103.259 47.8276L115.868 8.3635H126.264L138.68 48.2126L150.872 8.3635ZM199.104 55.8487L194.034 42.2769H172.634L167.532 55.8487H158.484L176.773 8.3635H189.991L208.28 55.8487H199.104ZM175.265 35.2183H191.371L183.318 13.7537L175.265 35.2183ZM214.706 9.26187C217.23 8.76991 219.722 8.40628 222.182 8.171C224.641 7.93571 227.24 7.81807 229.978 7.81807C237.4 7.81807 242.962 9.17632 246.662 11.8928C250.363 14.6093 252.213 18.8445 252.213 24.5983C252.213 35.8493 244.844 41.4748 230.107 41.4748C228.502 41.4748 226.449 41.3999 223.946 41.2502V55.8487H214.706V9.26187ZM230.171 34.8654C233.251 34.8654 235.743 34.5018 237.646 33.7745C239.571 33.0473 240.972 31.935 241.849 30.4377C242.748 28.9404 243.197 27.0047 243.197 24.6304C243.197 21.1011 242.181 18.5236 240.149 16.898C238.138 15.251 235.015 14.4275 230.78 14.4275C228.363 14.4275 226.085 14.6093 223.946 14.9729V34.4483C225.914 34.7264 227.989 34.8654 230.171 34.8654ZM278.75 69.9659V4H287.027V69.9659H278.75Z" fill="white"/>
<g filter="url(#filter1_d_1_165824)">
<path d="M331.374 56.4129C326.326 56.4129 321.535 56.1242 317 55.5466V9.76191C319.331 9.22716 321.973 8.82076 324.925 8.54269C327.898 8.24323 330.743 8.09351 333.459 8.09351C352.368 8.09351 361.822 16.1574 361.822 32.2853C361.822 37.868 360.699 42.4347 358.453 45.9854C356.229 49.5361 352.871 52.1671 348.379 53.8782C343.908 55.568 338.24 56.4129 331.374 56.4129ZM333.652 49.0335C340.047 49.0335 344.764 47.6859 347.801 44.9908C350.839 42.2743 352.357 38.0177 352.357 32.2211C352.357 26.4887 350.817 22.2642 347.737 19.5477C344.678 16.8098 340.015 15.4409 333.748 15.4409C331.438 15.4409 328.935 15.6655 326.24 16.1147V48.6484C328.315 48.9051 330.786 49.0335 333.652 49.0335ZM379.911 49.0014H407.151V56.0279H370.767V8.54269H406.83V15.5692H379.911V28.2106H403.493V35.2371H379.911V49.0014ZM438.596 31.4511L457.687 56.0279H447.227L433.014 37.6755L418.864 56.0279H408.694L427.656 31.6115L409.624 8.54269H420.116L433.238 25.3871L446.329 8.54269H456.435L438.596 31.4511Z" fill="#39FF71"/>
</g>
</g>
<defs>
<filter id="filter0_d_1_165824" x="0" y="4" width="470.991" height="78.9567" filterUnits="userSpaceOnUse" color-interpolation-filters="sRGB">
<feFlood flood-opacity="0" result="BackgroundImageFix"/>
<feColorMatrix in="SourceAlpha" type="matrix" values="0 0 0 0 0 0 0 0 0 0 0 0 0 0 0 0 0 0 127 0" result="hardAlpha"/>
<feOffset dx="8.66055" dy="8.66055"/>
<feGaussianBlur stdDeviation="2.16514"/>
<feComposite in2="hardAlpha" operator="out"/>
<feColorMatrix type="matrix" values="0 0 0 0 0 0 0 0 0 0 0 0 0 0 0 0 0 0 1 0"/>
<feBlend mode="normal" in2="BackgroundImageFix" result="effect1_dropShadow_1_165824"/>
<feBlend mode="normal" in="SourceGraphic" in2="effect1_dropShadow_1_165824" result="shape"/>
</filter>
<filter id="filter1_d_1_165824" x="309.422" y="0.515522" width="155.842" height="63.4753" filterUnits="userSpaceOnUse" color-interpolation-filters="sRGB">
<feFlood flood-opacity="0" result="BackgroundImageFix"/>
<feColorMatrix in="SourceAlpha" type="matrix" values="0 0 0 0 0 0 0 0 0 0 0 0 0 0 0 0 0 0 127 0" result="hardAlpha"/>
<feOffset/>
<feGaussianBlur stdDeviation="3.78899"/>
<feComposite in2="hardAlpha" operator="out"/>
<feColorMatrix type="matrix" values="0 0 0 0 0.223529 0 0 0 0 1 0 0 0 0 0.443137 0 0 0 0.7 0"/>
<feBlend mode="normal" in2="BackgroundImageFix" result="effect1_dropShadow_1_165824"/>
<feBlend mode="normal" in="SourceGraphic" in2="effect1_dropShadow_1_165824" result="shape"/>
</filter>
</defs>
</svg>
