<svg width="721" height="175" viewBox="0 0 721 175" fill="none" xmlns="http://www.w3.org/2000/svg">
<g clip-path="url(#clip0_640_1322)">
<path d="M179.102 119.246C179.217 119.993 179.339 120.783 179.467 121.598C179.522 121.975 179.585 122.345 179.645 122.718C186.574 126.398 190.509 130.616 190.509 135.106C190.509 149.463 150.216 161.096 100.504 161.096C50.7928 161.096 10.4995 149.463 10.4995 135.106C10.4995 130.434 14.7739 126.045 22.2584 122.251C22.3559 121.143 22.4662 120.04 22.5934 118.954C8.47253 124.874 0 132.424 0 140.653C0 159.624 44.996 174.999 100.5 174.999C156.004 174.999 201 159.619 201 140.653C201 132.56 192.807 125.12 179.102 119.251V119.246Z" fill="#8AD703"/>
<path d="M68.2004 54.7385C68.2004 56.8818 66.4406 58.626 64.2821 58.626C62.1237 58.626 60.3682 56.8818 60.3682 54.7385C60.3682 52.5953 62.1195 50.8511 64.2821 50.8511C66.4448 50.8511 68.2004 52.5869 68.2004 54.7385Z" fill="white"/>
<path d="M85.1874 34.4099C85.1874 38.4375 81.9053 41.6926 77.8556 41.6926C73.8059 41.6926 70.5195 38.4375 70.5195 34.4099C70.5195 30.3824 73.8017 27.123 77.8556 27.123C78.445 27.123 79.0133 27.191 79.5603 27.3268C81.371 27.7554 82.923 28.8503 83.9322 30.3357C83.9322 30.3357 83.9323 30.3485 83.945 30.3527C84.7295 31.5113 85.1874 32.9076 85.1874 34.4099Z" fill="white"/>
<path d="M104.779 89.2888C110.86 89.2888 116.848 88.805 121.444 88.2278C141.663 85.6772 161.326 81.6709 180.858 76.0349C185.06 74.8254 188.805 73.2466 192.46 71.2265C194.835 69.9109 195.301 67.7889 194.194 65.3444C190.938 58.1296 186.345 51.8061 181.553 45.2789C193.16 37.2833 193.613 20.9312 185.845 10.1304C179.637 1.49388 170.706 0 165.092 0C153.494 0 142.88 6.89645 138.928 18.0581C142.833 19.5647 146.713 20.3413 148.745 24.076C141.922 22.9217 135.209 22.2766 128.547 22.2766C121.16 22.2766 113.841 23.0702 106.496 24.8357C107.26 27.7428 107.887 30.1831 108.112 33.1751C104.991 31.0786 103.045 28.8675 100.92 26.2744C96.8196 21.2623 92.2144 16.9928 86.231 14.1409C81.6174 11.9468 76.7154 10.8051 71.7836 10.8051C66.2328 10.8051 60.6396 12.2566 55.3898 15.2698C47.3329 19.9 41.2902 28.4134 39.7254 38.5649C38.36 47.5112 41.3665 56.2793 46.3745 63.4431C37.9614 81.2126 31.3971 99.8605 28.522 119.213C28.5135 119.255 28.505 119.294 28.5008 119.336C28.4881 119.425 28.4754 119.519 28.4584 119.612C28.4584 119.65 28.4457 119.684 28.4414 119.722C28.081 122.031 26.8724 130.434 27.0633 137.717C34.0686 140.564 43.016 142.992 53.3459 144.83C54.2492 140.806 55.1863 135.658 56.6874 131.818C56.9122 131.219 57.1581 130.651 57.421 130.129C57.6076 130.731 57.7773 131.364 57.9257 132.013C58.9476 136.393 59.1893 141.664 59.9017 145.886C69.4005 147.278 79.8703 148.191 90.938 148.526C91.0567 144.028 91.2603 138.96 92.0617 134.988C92.0872 134.822 92.1296 134.657 92.1635 134.496C92.2695 134.657 92.3798 134.827 92.4816 135.001C94.6866 138.765 95.2167 145.025 97.2521 148.658C98.3292 148.67 99.4105 148.675 100.5 148.675C131.973 148.675 159.677 144.011 175.761 136.944L172.576 117.651C168.56 124.348 163.26 129.008 156.517 132.539C165.821 114.566 189.623 97.4245 193.16 77.3463C188.953 79.2773 185.366 80.9791 181.108 82.1674C163.993 86.9165 147.01 90.7445 129.378 93.3333C122.517 94.3391 115.181 95.0394 107.866 95.0394C99.1985 95.0394 90.5648 94.059 82.7708 91.4617C82.4655 91.3556 82.139 91.309 81.8124 91.309C80.7862 91.309 79.7558 91.78 79.196 92.5355L76.198 96.529C74.5654 94.9375 74.0354 92.5482 74.7605 90.3244C76.2616 85.7239 80.6251 82.0995 85.5441 82.0995C86.0445 82.0995 86.5491 82.1377 87.0664 82.2184L84.0599 86.2501C89.4114 88.5292 97.1631 89.2888 104.779 89.2888ZM165.363 56.8267C161.661 55.6045 161.373 46.1956 165.147 47.6343C167.517 48.5552 167.946 55.0527 165.363 56.8267ZM163.027 5.38135H163.039C169.209 2.41906 177.351 5.41955 181.731 10.2449C189.271 18.6565 191.277 35.4796 178.11 39.3034C173.844 37.8689 169.833 35.713 166.283 32.9459C161.377 29.1179 155.695 23.5922 155.852 16.8825C155.852 12.1547 158.799 7.45665 163.031 5.38559L163.027 5.38135ZM137.431 54.4459C137.834 53.5079 139.335 52.9477 140.302 53.143C144.05 53.8772 147.129 57.2893 146.917 61.0792C146.696 61.1089 146.463 61.1216 146.213 61.1216C142.46 61.1216 136.002 57.6967 137.431 54.4459ZM71.5843 66.9783C58.4727 66.9783 47.846 56.4278 47.846 43.4158C47.846 30.4038 58.4727 19.849 71.5843 19.849C84.696 19.849 95.3227 30.3995 95.3227 43.4158C95.3227 56.432 84.6875 66.9783 71.5843 66.9783Z" fill="#8AD703"/>
<path d="M181.731 10.2409C177.351 5.41553 169.209 2.41505 163.039 5.37734C163.039 5.37734 163.039 5.37734 163.026 5.37734C158.794 7.44839 155.847 12.1465 155.847 16.8742C155.69 23.584 161.372 29.1096 166.279 32.9377C169.828 35.7047 173.839 37.8607 178.105 39.2951C191.272 35.4713 189.266 18.6482 181.727 10.2367L181.731 10.2409ZM174.191 30.6332C173.144 30.6332 172.292 29.7886 172.292 28.7489C172.292 27.7091 173.144 26.8688 174.191 26.8688C175.239 26.8688 176.087 27.7091 176.087 28.7489C176.087 29.7886 175.243 30.6332 174.191 30.6332ZM180.743 19.0217C180.59 19.2381 180.408 19.4334 180.204 19.6074C179.059 20.6089 177.011 20.8466 175.408 19.9469C173.899 19.0981 172.851 17.3963 172.661 15.9448C172.457 14.3194 173.097 12.5157 174.543 11.6329C174.738 11.5099 174.942 11.4123 175.158 11.3274C177.647 10.3895 180.026 12.1677 181.061 14.5867C181.723 16.1443 181.629 17.8291 180.743 19.0217Z" fill="black"/>
<path d="M176.087 28.7487C176.087 29.7885 175.243 30.6331 174.192 30.6331C173.14 30.6331 172.292 29.7885 172.292 28.7487C172.292 27.709 173.144 26.8687 174.192 26.8687C175.239 26.8687 176.087 27.709 176.087 28.7487Z" fill="white"/>
<path d="M180.743 19.0214C180.591 19.2378 180.408 19.4331 180.205 19.6071C179.06 20.6086 177.012 20.8463 175.409 19.9466C173.899 19.0978 172.852 17.3959 172.661 15.9445C172.457 14.3191 173.098 12.5154 174.544 11.6326C174.739 11.5096 174.942 11.412 175.159 11.3271C177.648 10.3892 180.027 12.1674 181.061 14.5864C181.723 16.144 181.63 17.8288 180.743 19.0214Z" fill="white"/>
<path d="M71.5841 19.8491C58.4724 19.8491 47.8457 30.4039 47.8457 43.4159C47.8457 56.4279 58.4724 66.9784 71.5841 66.9784C84.6957 66.9784 95.3224 56.4321 95.3224 43.4159C95.3224 30.3996 84.6957 19.8491 71.5841 19.8491ZM64.2819 58.6263C62.1192 58.6263 60.3679 56.882 60.3679 54.7388C60.3679 52.5956 62.1192 50.8513 64.2819 50.8513C66.4446 50.8513 68.2001 52.5871 68.2001 54.7388C68.2001 56.8905 66.4403 58.6263 64.2819 58.6263ZM77.8558 41.6928C73.8061 41.6928 70.5197 38.4377 70.5197 34.4102C70.5197 30.3826 73.8018 27.1233 77.8558 27.1233C78.4452 27.1233 79.0134 27.1912 79.5604 27.327C81.3711 27.7556 82.9232 28.8506 83.9324 30.336C83.9324 30.336 83.9324 30.3487 83.9451 30.3529C84.7296 31.5115 85.1876 32.9078 85.1876 34.4102C85.1876 38.4377 81.9055 41.6928 77.8558 41.6928Z" fill="black"/>
</g>
<path d="M684.37 119.777C666.528 119.777 654.014 105.156 654.014 87.3141C654.014 69.7197 668.387 54.9751 687.22 54.9751C706.425 54.9751 720.55 68.8524 720.55 87.3141V118.166H711.01C707.041 118.166 703.823 114.949 703.823 110.98C699.486 116.431 692.796 119.777 684.37 119.777ZM687.22 103.298C696.265 103.298 702.956 96.1112 702.956 87.438C702.956 78.7647 696.265 71.5782 687.22 71.5782C678.175 71.5782 671.608 78.7647 671.608 87.438C671.608 96.1112 678.175 103.298 687.22 103.298Z" fill="#8AD703"/>
<path d="M630.612 118.167C620.895 118.167 613.018 110.29 613.018 100.572V82.9781C613.018 67.2423 621.939 55.2236 640.153 55.2236C644.118 55.2236 648.455 55.9671 651.552 57.33V74.4288C648.579 72.6941 644.985 71.8268 641.764 71.8268C634.825 71.8268 630.612 76.2873 630.612 83.5977V118.167Z" fill="#8AD703"/>
<path d="M571.083 119.777C552.25 119.777 537.877 105.156 537.877 87.3141C537.877 69.5958 552.374 54.9751 571.083 54.9751C590.041 54.9751 604.413 69.7197 604.413 87.3141C604.413 105.156 589.917 119.777 571.083 119.777ZM571.083 103.298C580.128 103.298 586.819 96.1112 586.819 87.438C586.819 78.7647 580.128 71.5782 571.083 71.5782C562.038 71.5782 555.471 78.7647 555.471 87.438C555.471 96.1112 562.038 103.298 571.083 103.298Z" fill="#8AD703"/>
<path d="M496.015 119.901C477.182 119.901 462.809 105.281 462.809 87.5623C462.809 68.4811 475.943 55.0994 495.024 55.0994C501.219 55.0994 507.167 57.3297 511.627 60.9229L511.751 28.584C521.468 28.584 529.346 36.4612 529.346 46.1783V87.5623C529.346 106.148 515.22 119.901 496.015 119.901ZM496.015 103.298C505.06 103.298 511.751 96.2356 511.751 87.5623C511.751 78.889 505.06 71.7026 496.015 71.7026C486.97 71.7026 480.403 78.889 480.403 87.5623C480.403 96.2356 486.97 103.298 496.015 103.298Z" fill="#8AD703"/>
<path d="M422.079 72.1979C412.167 72.1979 407.706 80.2516 407.706 89.6683V118.166C397.989 118.166 390.112 110.289 390.112 100.572V87.562C390.112 69.7198 400.644 55.0991 422.079 55.0991C443.514 55.0991 454.294 69.5959 454.294 87.562V118.166C444.577 118.166 436.7 110.289 436.7 100.572V89.6683C436.7 80.2516 432.115 72.1979 422.079 72.1979Z" fill="#8AD703"/>
<path d="M348.176 119.777C329.343 119.777 314.97 105.156 314.97 87.3141C314.97 69.5958 329.467 54.9751 348.176 54.9751C367.133 54.9751 381.506 69.7197 381.506 87.3141C381.506 105.156 367.009 119.777 348.176 119.777ZM348.176 103.298C357.221 103.298 363.912 96.1112 363.912 87.438C363.912 78.7647 357.221 71.5782 348.176 71.5782C339.131 71.5782 332.564 78.7647 332.564 87.438C332.564 96.1112 339.131 103.298 348.176 103.298Z" fill="#8AD703"/>
<path d="M260.594 146.416C250.877 146.416 243 138.539 243 128.822V87.3142C243 68.8525 257.125 55.0991 276.206 55.0991C295.164 55.0991 309.413 69.7198 309.413 87.3142C309.413 106.519 296.279 119.901 277.198 119.901C271.002 119.901 265.179 117.671 260.594 114.201V146.416ZM276.206 103.298C285.251 103.298 291.818 96.1114 291.818 87.4381C291.818 78.7648 285.251 71.7023 276.206 71.7023C267.161 71.7023 260.594 78.7648 260.594 87.4381C260.594 96.1114 267.161 103.298 276.206 103.298Z" fill="#8AD703"/>
<defs>
<clipPath id="clip0_640_1322">
<rect width="201" height="175" fill="white"/>
</clipPath>
</defs>
</svg>
